<svg xmlns="http://www.w3.org/2000/svg" width="62" height="70" viewBox="0 0 62 70">
  <g id="Group_15" data-name="Group 15" transform="translate(-270 -1139)">
    <path id="Union_2" data-name="Union 2" d="M-5,322.218.218,317l1.8,1.8-2.145,2.145H15.685V323.5H-.109l2.131,2.131-1.8,1.8Z" transform="translate(275 855.366)" fill="#efc458"/>
    <g id="Group_9" data-name="Group 9" transform="translate(277.025 1139)">
      <path id="Path_19" data-name="Path 19" d="M127.959,440.246H81.286V428.611h46.673ZM83.794,437.7h41.657v-6.532H83.795Z" transform="translate(-81.286 -370.246)" fill="#fff"/>
      <path id="Path_20" data-name="Path 20" d="M146.328,199.2H106.764l1.088-1.873c5.87-10.114,8.973-22.572,8.973-36.027v-1.248h19.443V161.3c0,13.457,3.1,25.914,8.973,36.027Zm-35.269-2.5h30.974c-5.241-9.813-8.081-21.551-8.257-34.157h-14.46c-.175,12.609-3.016,24.347-8.257,34.157Z" transform="translate(-103.209 -138.284)" fill="#fff"/>
      <path id="Path_21" data-name="Path 21" d="M151.5,19.4H132.928L124.97,0h11.275V4.835h2.316V0h7.3V4.835h2.316V0h11.276Zm-16.9-2.476h15.22L155.744,2.48H150.67V7.315h-7.3V2.48h-2.315V7.315h-7.3V2.48h-5.072Z" transform="translate(-118.875)" fill="#fff"/>
      <path id="Path_22" data-name="Path 22" d="M174.109,131.565H145.3v-6.778h28.81Zm-26.329-2.314h23.846V127.1H147.781Z" transform="translate(-136.367 -107.479)" fill="#efc458"/>
    </g>
    <path id="Path_23" data-name="Path 23" d="M219.916,244.71a6.1,6.1,0,1,1-6.094-6.1A6.1,6.1,0,0,1,219.916,244.71Z" transform="translate(86.549 932.872)" fill="#fff"/>
    <path id="Union_1" data-name="Union 1" d="M15.841,326.379l-3.41-3.408H-5V320.42H12.421l3.42-3.42H26.792L22.1,321.69l4.692,4.689Zm-1.082-4.689,2.138,2.138H20.63l-2.138-2.138,2.138-2.137H16.9Z" transform="translate(305.208 855.895)" fill="#efc458"/>
  </g>
</svg>
