<svg xmlns="http://www.w3.org/2000/svg" width="69.997" height="70" viewBox="0 0 69.997 70">
  <g id="Group_36" data-name="Group 36" transform="translate(-0.01)">
    <path id="Path_15" data-name="Path 15" d="M31.022,62.02A31.01,31.01,0,1,1,62.03,31.01l-2.711,0a28.3,28.3,0,1,0-28.3,28.3V62.02h0Z" fill="#efc458"/>
    <g id="Group_7" data-name="Group 7" transform="translate(9.764 9.757)">
      <path id="Path_16" data-name="Path 16" d="M92.584,71.368a21.251,21.251,0,1,0,0,42.5v-6.923a14.331,14.331,0,1,1,14.332-14.332l6.931,0A21.283,21.283,0,0,0,92.584,71.368Z" transform="translate(-71.328 -71.368)" fill="#fff"/>
      <path id="Path_17" data-name="Path 17" d="M187.424,180.007a7.412,7.412,0,1,1-7.412-7.411,7.412,7.412,0,0,1,7.412,7.411Z" transform="translate(-158.753 -158.756)" fill="#fff"/>
    </g>
    <g id="Group_8" data-name="Group 8" transform="translate(31.022 31.01)">
      <path id="Path_18" data-name="Path 18" d="M242.544,265.809l-15.729-38.99L265.8,242.555l-16.183,7.068ZM231.716,231.72l10.929,27.091,4.917-11.248,11.243-4.911Z" transform="translate(-226.815 -226.819)" fill="#efc458"/>
      <rect id="Rectangle_9" data-name="Rectangle 9" width="13.629" height="2.71" transform="translate(30.452 32.37) rotate(-135)" fill="#efc458"/>
    </g>
  </g>
</svg>
